<svg id="visual" viewBox="0 0 1800 100" width="1800" height="100" xmlns="http://www.w3.org/2000/svg" xmlns:xlink="http://www.w3.org/1999/xlink" version="1.1"><rect x="0" y="0" width="1800" height="100" fill="#e7e1e1"></rect><path d="M0 53L18.8 54.8C37.7 56.7 75.3 60.3 112.8 61.5C150.3 62.7 187.7 61.3 225.2 58.2C262.7 55 300.3 50 337.8 45.2C375.3 40.3 412.7 35.7 450.2 42.3C487.7 49 525.3 67 562.8 73C600.3 79 637.7 73 675.2 65.7C712.7 58.3 750.3 49.7 787.8 49.2C825.3 48.7 862.7 56.3 900.2 63.7C937.7 71 975.3 78 1012.8 72.3C1050.3 66.7 1087.7 48.3 1125.2 41.2C1162.7 34 1200.3 38 1237.8 39.5C1275.3 41 1312.7 40 1350.2 42.2C1387.7 44.3 1425.3 49.7 1462.8 56.5C1500.3 63.3 1537.7 71.7 1575.2 67.2C1612.7 62.7 1650.3 45.3 1687.8 42.5C1725.3 39.7 1762.7 51.3 1781.3 57.2L1800 63L1800 101L1781.3 101C1762.7 101 1725.3 101 1687.8 101C1650.3 101 1612.7 101 1575.2 101C1537.7 101 1500.3 101 1462.8 101C1425.3 101 1387.7 101 1350.2 101C1312.7 101 1275.3 101 1237.8 101C1200.3 101 1162.7 101 1125.2 101C1087.7 101 1050.3 101 1012.8 101C975.3 101 937.7 101 900.2 101C862.7 101 825.3 101 787.8 101C750.3 101 712.7 101 675.2 101C637.7 101 600.3 101 562.8 101C525.3 101 487.7 101 450.2 101C412.7 101 375.3 101 337.8 101C300.3 101 262.7 101 225.2 101C187.7 101 150.3 101 112.8 101C75.3 101 37.7 101 18.8 101L0 101Z" fill="#f9f7f7" stroke-linecap="round" stroke-linejoin="miter"></path></svg>