<svg id="visual" viewBox="0 0 768 100" width="768" height="100" xmlns="http://www.w3.org/2000/svg" xmlns:xlink="http://www.w3.org/1999/xlink" version="1.1"><path d="M0 27L18.3 26.8C36.7 26.7 73.3 26.3 109.8 27.8C146.3 29.3 182.7 32.7 219.2 32.7C255.7 32.7 292.3 29.3 329 32.2C365.7 35 402.3 44 439 46.7C475.7 49.3 512.3 45.7 548.8 41.7C585.3 37.7 621.7 33.3 658.2 33.8C694.7 34.3 731.3 39.7 749.7 42.3L768 45L768 0L749.7 0C731.3 0 694.7 0 658.2 0C621.7 0 585.3 0 548.8 0C512.3 0 475.7 0 439 0C402.3 0 365.7 0 329 0C292.3 0 255.7 0 219.2 0C182.7 0 146.3 0 109.8 0C73.3 0 36.7 0 18.3 0L0 0Z" fill="#0F7173" stroke-linecap="round" stroke-linejoin="miter"></path></svg>